<mxfile host="65bd71144e">
    <diagram id="ArxtVnHaTIVjWUfL6Eey" name="Page-1">
        <mxGraphModel dx="1490" dy="628" grid="0" gridSize="10" guides="1" tooltips="1" connect="1" arrows="1" fold="1" page="1" pageScale="1" pageWidth="1169" pageHeight="827" math="0" shadow="0">
            <root>
                <mxCell id="0"/>
                <mxCell id="1" parent="0"/>
                <mxCell id="2" value="&lt;br&gt;&lt;br&gt;&lt;br&gt;&lt;br&gt;&lt;br&gt;If Deposit = 1&lt;br&gt;Check Old Amount == Amount&lt;br&gt;Leaf == Commitment&lt;br&gt;&lt;br&gt;&lt;br&gt;If deposit == 0 (case withdraw)&lt;br&gt;Check relayer and receiver != 0&lt;br&gt;Check Nullifier == NullifierProof&lt;br&gt;&lt;br&gt;Calculate merkle root with (Commitment, Witnesses, Leaf Index) == Merkle Root&lt;br&gt;&lt;br&gt;Amount &amp;gt; OldAmount&lt;br&gt;Leaf == Commitment Withdraw&lt;br&gt;&amp;nbsp;" style="rounded=0;whiteSpace=wrap;html=1;" vertex="1" parent="1">
                    <mxGeometry x="300" y="160" width="480" height="385" as="geometry"/>
                </mxCell>
                <mxCell id="3" value="Private Input" style="text;html=1;strokeColor=none;fillColor=none;align=center;verticalAlign=middle;whiteSpace=wrap;rounded=0;glass=0;fontStyle=1;fontSize=16;" vertex="1" parent="1">
                    <mxGeometry x="150" y="130" width="110" height="30" as="geometry"/>
                </mxCell>
                <mxCell id="5" value="Secret&lt;br style=&quot;font-size: 12px;&quot;&gt;" style="endArrow=classic;html=1;fontSize=12;" edge="1" parent="1">
                    <mxGeometry width="50" height="50" relative="1" as="geometry">
                        <mxPoint x="160" y="192" as="sourcePoint"/>
                        <mxPoint x="300" y="192" as="targetPoint"/>
                    </mxGeometry>
                </mxCell>
                <mxCell id="8" value="Old Amount" style="endArrow=classic;html=1;entryX=0.004;entryY=0.209;entryDx=0;entryDy=0;entryPerimeter=0;fontSize=12;" edge="1" parent="1">
                    <mxGeometry width="50" height="50" relative="1" as="geometry">
                        <mxPoint x="169.04" y="286.02" as="sourcePoint"/>
                        <mxPoint x="300.00000000000006" y="286" as="targetPoint"/>
                    </mxGeometry>
                </mxCell>
                <mxCell id="9" value="Witnesses" style="endArrow=classic;html=1;entryX=0.004;entryY=0.209;entryDx=0;entryDy=0;entryPerimeter=0;fontSize=12;" edge="1" parent="1">
                    <mxGeometry width="50" height="50" relative="1" as="geometry">
                        <mxPoint x="169.04" y="390.02" as="sourcePoint"/>
                        <mxPoint x="300.00000000000006" y="390" as="targetPoint"/>
                    </mxGeometry>
                </mxCell>
                <mxCell id="10" value="Leaf Index" style="endArrow=classic;html=1;entryX=0.004;entryY=0.209;entryDx=0;entryDy=0;entryPerimeter=0;fontSize=12;" edge="1" parent="1">
                    <mxGeometry width="50" height="50" relative="1" as="geometry">
                        <mxPoint x="169.04" y="470.02" as="sourcePoint"/>
                        <mxPoint x="300.00000000000006" y="470" as="targetPoint"/>
                    </mxGeometry>
                </mxCell>
                <mxCell id="12" value="&lt;h1&gt;Twister&lt;/h1&gt;&lt;p&gt;How proof systems works on twister protocol&amp;nbsp;to surpass other storms&lt;/p&gt;" style="text;html=1;strokeColor=none;fillColor=none;spacing=5;spacingTop=-20;whiteSpace=wrap;overflow=hidden;rounded=0;" vertex="1" parent="1">
                    <mxGeometry x="30" y="10" width="190" height="120" as="geometry"/>
                </mxCell>
                <mxCell id="13" value="Public Input" style="text;html=1;strokeColor=none;fillColor=none;align=center;verticalAlign=middle;whiteSpace=wrap;rounded=0;glass=0;fontStyle=1;fontSize=16;" vertex="1" parent="1">
                    <mxGeometry x="840" y="130" width="110" height="30" as="geometry"/>
                </mxCell>
                <mxCell id="14" value="&lt;font style=&quot;font-size: 12px;&quot;&gt;Leaf&lt;/font&gt;" style="endArrow=classic;html=1;fontSize=12;" edge="1" parent="1">
                    <mxGeometry width="50" height="50" relative="1" as="geometry">
                        <mxPoint x="931" y="202" as="sourcePoint"/>
                        <mxPoint x="781" y="202" as="targetPoint"/>
                    </mxGeometry>
                </mxCell>
                <mxCell id="15" value="&lt;font style=&quot;font-size: 12px;&quot;&gt;Nullifier&lt;/font&gt;" style="endArrow=classic;html=1;fontSize=11;" edge="1" parent="1">
                    <mxGeometry width="50" height="50" relative="1" as="geometry">
                        <mxPoint x="930" y="296" as="sourcePoint"/>
                        <mxPoint x="780" y="296" as="targetPoint"/>
                    </mxGeometry>
                </mxCell>
                <mxCell id="16" value="&lt;font style=&quot;font-size: 12px;&quot;&gt;Amount&lt;/font&gt;" style="endArrow=classic;html=1;fontSize=12;" edge="1" parent="1">
                    <mxGeometry width="50" height="50" relative="1" as="geometry">
                        <mxPoint x="930" y="346" as="sourcePoint"/>
                        <mxPoint x="780" y="346" as="targetPoint"/>
                    </mxGeometry>
                </mxCell>
                <mxCell id="17" value="&lt;font style=&quot;font-size: 12px;&quot;&gt;Receiver&lt;/font&gt;" style="endArrow=classic;html=1;fontSize=16;" edge="1" parent="1">
                    <mxGeometry width="50" height="50" relative="1" as="geometry">
                        <mxPoint x="930" y="396" as="sourcePoint"/>
                        <mxPoint x="780" y="396" as="targetPoint"/>
                    </mxGeometry>
                </mxCell>
                <mxCell id="18" value="&lt;font style=&quot;font-size: 12px;&quot;&gt;Relayer&lt;/font&gt;" style="endArrow=classic;html=1;fontSize=12;" edge="1" parent="1">
                    <mxGeometry width="50" height="50" relative="1" as="geometry">
                        <mxPoint x="930" y="446" as="sourcePoint"/>
                        <mxPoint x="780" y="446" as="targetPoint"/>
                    </mxGeometry>
                </mxCell>
                <mxCell id="19" value="&lt;font style=&quot;font-size: 12px;&quot;&gt;Deposit&lt;/font&gt;" style="endArrow=classic;html=1;fontSize=12;" edge="1" parent="1">
                    <mxGeometry width="50" height="50" relative="1" as="geometry">
                        <mxPoint x="930" y="506" as="sourcePoint"/>
                        <mxPoint x="780" y="506" as="targetPoint"/>
                    </mxGeometry>
                </mxCell>
                <mxCell id="20" value="&lt;font style=&quot;font-size: 12px;&quot;&gt;Merkle Root&lt;/font&gt;" style="endArrow=classic;html=1;fontSize=12;" edge="1" parent="1">
                    <mxGeometry width="50" height="50" relative="1" as="geometry">
                        <mxPoint x="930" y="246" as="sourcePoint"/>
                        <mxPoint x="780" y="246" as="targetPoint"/>
                        <Array as="points">
                            <mxPoint x="860" y="246"/>
                        </Array>
                    </mxGeometry>
                </mxCell>
                <mxCell id="21" value="Proof Generation" style="text;html=1;strokeColor=none;fillColor=none;align=center;verticalAlign=middle;whiteSpace=wrap;rounded=0;glass=0;fontStyle=1;fontSize=16;" vertex="1" parent="1">
                    <mxGeometry x="440" y="100" width="110" height="30" as="geometry"/>
                </mxCell>
                <mxCell id="26" value="&lt;span style=&quot;color: rgb(0, 0, 0); font-family: Helvetica; font-size: 12px; font-style: normal; font-variant-ligatures: normal; font-variant-caps: normal; font-weight: 400; letter-spacing: normal; orphans: 2; text-align: center; text-indent: 0px; text-transform: none; widows: 2; word-spacing: 0px; -webkit-text-stroke-width: 0px; background-color: rgb(251, 251, 251); text-decoration-thickness: initial; text-decoration-style: initial; text-decoration-color: initial; float: none; display: inline !important;&quot;&gt;Hash Secret + Old Amount = Commitment&lt;br&gt;&lt;/span&gt;&lt;span style=&quot;font-size: 12px;&quot;&gt;Hash Secret + (Old Amount - Amount) = Commitment Withdraw&lt;/span&gt;&lt;br style=&quot;border-color: var(--border-color); color: rgb(0, 0, 0); font-family: Helvetica; font-size: 12px; font-style: normal; font-variant-ligatures: normal; font-variant-caps: normal; font-weight: 400; letter-spacing: normal; orphans: 2; text-align: center; text-indent: 0px; text-transform: none; widows: 2; word-spacing: 0px; -webkit-text-stroke-width: 0px; background-color: rgb(251, 251, 251); text-decoration-thickness: initial; text-decoration-style: initial; text-decoration-color: initial;&quot;&gt;&lt;span style=&quot;color: rgb(0, 0, 0); font-family: Helvetica; font-size: 12px; font-style: normal; font-variant-ligatures: normal; font-variant-caps: normal; font-weight: 400; letter-spacing: normal; orphans: 2; text-align: center; text-indent: 0px; text-transform: none; widows: 2; word-spacing: 0px; -webkit-text-stroke-width: 0px; background-color: rgb(251, 251, 251); text-decoration-thickness: initial; text-decoration-style: initial; text-decoration-color: initial; float: none; display: inline !important;&quot;&gt;Hash Old Amount + Secret = NullifierProof&lt;/span&gt;" style="rounded=1;whiteSpace=wrap;html=1;glass=0;fontSize=14;" vertex="1" parent="1">
                    <mxGeometry x="330" y="176" width="390" height="80" as="geometry"/>
                </mxCell>
            </root>
        </mxGraphModel>
    </diagram>
</mxfile>